<?xml version="1.0" encoding="utf-8"?>
<!-- Generator: Adobe Illustrator 25.2.1, SVG Export Plug-In . SVG Version: 6.00 Build 0)  -->
<svg version="1.1" id="Layer_1" xmlns="http://www.w3.org/2000/svg" xmlns:xlink="http://www.w3.org/1999/xlink" x="0px" y="0px"
	 viewBox="0 0 132.6 470.8" style="enable-background:new 0 0 132.6 470.8;" xml:space="preserve">
<path d="M132.5,1.1L0.3,49.2v0v35.5v0L83.7,115L0.3,145.4v0v35.5v0l83.5,30.4L0.3,241.7v0l-0.1,0v35.5v0l83.5,30.4L0.2,337.9v0v35.5
	v0l83.5,30.4L0.2,434.2v35.5l132.2-48.1v0V386v0l-83.5-30.4l83.5-30.4v0v-35.5v0L49,259.4l83.5-30.4v0v-35.5v0L49,163.2l83.5-30.4v0
	V97.3v0L49,66.9l83.5-30.4V1.1z M40.9,66.9L3,80.7V53.1L40.9,66.9z M40.9,163.2L3,177v-27.6L40.9,163.2z M3,245.7l37.8,13.8L3,273.2
	V245.7z M40.8,355.7L3,369.4v-27.6L40.8,355.7z M3,465.7v-29.6l84.7-30.8l40.6,14.8L3,465.7z M91.8,403.8l37.9-13.8v27.6L91.8,403.8
	z M128.3,387.5l-40.6,14.8L4.2,371.9l40.6-14.8L128.3,387.5z M44.9,354.2L4.2,339.4L87.7,309l40.6,14.8L44.9,354.2z M91.8,307.5
	l37.9-13.8v27.6L91.8,307.5z M128.3,291.3l-40.6,14.8L4.3,275.7l40.6-14.8L128.3,291.3z M44.9,258L4.3,243.2l83.5-30.4l40.6,14.8
	L44.9,258z M91.8,211.3l37.9-13.8v27.6L91.8,211.3z M128.4,195l-40.6,14.8L4.3,179.4L45,164.6L128.4,195z M45,161.7L4.3,146.9
	l83.5-30.4l40.6,14.8L45,161.7z M91.8,115l37.9-13.8v27.6L91.8,115z M128.4,98.8l-40.6,14.8L4.3,83.2L45,68.4L128.4,98.8z
	 M129.7,34.6L45,65.4L4.3,50.7L129.7,5V34.6z"/>
</svg>
